<?xml version="1.0" encoding="UTF-8" standalone="no"?>


<svg xmlns="http://www.w3.org/2000/svg" width="770.90002" height="1000" viewBox="0 0 770.90002 1000" version="1.1">
  
  
  
  <g xmlns:inkscape="inkscape" transform="translate(-452.08965,90.47713)">
    <path d="m 523.25253,723.21231 v 155.5038 c 0,23.89579 -18.73647,30.77489 -35.66267,30.77489 -16.65465,0 -35.39115,-6.8791 -35.39115,-30.77489 v -155.5038 h 27.15433 v 153.15041 c 0,9.32299 2.89647,11.3143 8.50837,11.3143 5.34035,0 8.23682,-1.99131 8.23682,-11.3143 V 723.21231 Z" style="fill:#000000;fill-rule:nonzero;stroke:none;stroke-width:2.97610784"></path>
    <path d="m 593.94432,723.21231 7.69374,52.58887 c 6.15498,33.85241 10.49968,69.06251 12.85304,103.45801 h 0.99566 v -9.77556 c 0.27142,-17.74082 -0.72412,-35.6627 -0.72412,-53.40352 v -92.8678 h 22.26656 v 182.65814 h -40.27892 l -12.76253,-91.32907 c -4.43523,-22.5381 -5.97397,-43.08488 -8.23682,-64.62731 h -1.08619 c 0,7.96525 0.5431,15.93054 0.81464,23.62425 V 905.87045 H 553.1223 V 723.21231 Z" style="fill:#000000;fill-rule:nonzero;stroke:none;stroke-width:2.97610784"></path>
    <path style="fill:#000000;fill-rule:nonzero;stroke:none;stroke-width:2.97610784" d="m 667.30627,723.21231 h 27.24486 v 182.65814 h -27.24486 z"></path>
    <path d="m 745.76421,723.21231 8.50833,76.21315 c 1.99134,18.01236 4.07316,53.58455 6.15501,71.86845 h 0.45254 c 1.53877,-22.08552 3.62059,-43.89949 5.4309,-65.71347 l 8.23679,-82.36813 h 27.15433 L 780.15968,905.87045 H 739.06612 L 718.60987,723.21231 Z" style="fill:#000000;fill-rule:nonzero;stroke:none;stroke-width:2.97610784"></path>
    <path style="fill:#000000;fill-rule:nonzero;stroke:none;stroke-width:2.97610784" d="m 827.78838,723.21231 h 27.15434 v 182.65814 h -27.15434 z"></path>
    <path d="m 911.0164,876.39895 c 0,9.23245 2.806,11.31429 8.50834,11.31429 5.34041,0 8.14633,-2.08184 8.14633,-11.31429 v -19.27959 c 0,-25.61559 -43.8995,-50.77861 -43.8995,-80.55785 v -26.15867 c 0,-23.80529 18.73649,-30.77493 35.48166,-30.77493 16.92618,0 35.66267,6.96964 35.66267,30.77493 v 38.46862 h -27.24483 v -36.20577 c 0,-9.14195 -2.80592,-11.2238 -8.14633,-11.2238 -5.70234,0 -8.50834,2.08185 -8.50834,11.2238 v 22.62863 c 0,13.12457 43.8995,52.58886 43.8995,71.05382 v 32.31366 c 0,23.89579 -18.73649,30.86542 -35.66267,30.86542 -16.74517,0 -35.48166,-6.96963 -35.48166,-30.86542 v -41.99872 h 27.24483 z" style="fill:#000000;fill-rule:nonzero;stroke:none;stroke-width:2.97610784"></path>
    <path style="fill:#000000;fill-rule:nonzero;stroke:none;stroke-width:2.97610784" d="m 983.47319,723.21231 h 27.15441 v 182.65814 h -27.15441 z"></path>
    <path d="m 1066.3845,752.71096 c 0,-9.23249 2.8059,-11.31431 8.5083,-11.31431 5.3403,0 8.1463,2.08182 8.1463,11.31431 v 123.73322 c 0,9.23248 -2.806,11.22379 -8.1463,11.22379 -5.7024,0 -8.5083,-1.99131 -8.5083,-11.22379 z m -27.1544,125.99611 c 0,23.89579 18.646,30.77488 35.3912,30.77488 16.9262,0 35.6627,-6.87909 35.6627,-30.77488 V 750.4481 c 0,-23.89582 -18.7365,-30.86542 -35.6627,-30.86542 -16.7452,0 -35.3912,6.9696 -35.3912,30.86542 z" style="fill:#000000;fill-rule:nonzero;stroke:none;stroke-width:2.97610784"></path>
    <path d="m 1179.9258,723.21231 7.6937,52.58887 c 6.155,33.85241 10.4997,69.06251 12.853,103.45801 h 0.9957 v -9.77556 c 0.2714,-17.74082 -0.7241,-35.6627 -0.7241,-53.40352 v -92.8678 h 22.2665 v 182.65814 h -40.2789 l -12.853,-91.32907 c -4.3448,-22.5381 -5.8835,-43.08488 -8.1464,-64.62731 h -1.0861 c 0,7.96525 0.543,15.93054 0.8146,23.62425 v 132.33213 h -22.3571 V 723.21231 Z" style="fill:#000000;fill-rule:nonzero;stroke:none;stroke-width:2.97610784"></path>
    <path style="fill:#00a54f;fill-rule:nonzero;stroke:none;stroke-width:2.97610784" d="M 1222.6423,-90.445606 H 859.2268 V 272.96985 h 363.4155 z"></path>
    <path d="m 815.6803,273.03322 c 0,-200.761032 -162.74497,-363.506 -363.506,-363.506 v 0.09047 363.41547 z" style="fill:#5f53ae;fill-rule:nonzero;stroke:none;stroke-width:2.97610784"></path>
    <path d="m 452.11094,316.35344 c 0,200.76102 162.74497,363.50597 363.506,363.50597 v -0.0905 -363.41547 z" style="fill:#ee1c23;fill-rule:nonzero;stroke:none;stroke-width:2.97610784"></path>
    <path d="m 1222.6785,316.35344 c 0,200.76102 -162.745,363.50597 -363.50602,363.50597 l 0.0905,-0.0905 V 316.35347 Z" style="fill:#0995dc;fill-rule:nonzero;stroke:none;stroke-width:2.97610784"></path>
  </g>
</svg>